<svg xmlns="http://www.w3.org/2000/svg" viewBox="0 0 514.18 629.78"><defs><style>.cls-1{fill:#a0aec0;}.cls-2{fill:#667eea;}</style></defs><title>Asset 2</title><g id="Layer_2" data-name="Layer 2"><g id="Layer_1-2" data-name="Layer 1"><path class="cls-1" d="M293.53,377.47q76.14-36.87,67.64-131.16H314.09a47.77,47.77,0,0,1-47.77-47.77h0V47.73A47.76,47.76,0,0,1,314.09,0H466.41a47.77,47.77,0,0,1,47.77,47.77h0v160q0,152.43-73.45,218.64-45.75,41.24-116,58c-29.86,7.12-58.46-15.86-58.46-46.56V420.6A48,48,0,0,1,293.53,377.47Z"/><path class="cls-2" d="M362.52,148.29a28.58,28.58,0,0,0,28.32-24.71,4.4,4.4,0,0,1,4.3-3.88h.58a4.34,4.34,0,0,1,4.32,4.36,3.77,3.77,0,0,1,0,.58,37.81,37.81,0,0,1-75,0,4.34,4.34,0,0,1,3.7-4.9,3.77,3.77,0,0,1,.58,0h.59a4.38,4.38,0,0,1,4.29,3.88A28.59,28.59,0,0,0,362.52,148.29Z"/><path class="cls-2" d="M220.65,521.5Q144.51,484.62,153,390.34h47.08a47.77,47.77,0,0,0,47.77-47.77h0V191.75A47.78,47.78,0,0,0,200.09,144H47.77A47.77,47.77,0,0,0,0,191.77V351.84Q0,504.27,73.45,570.48q45.75,41.24,116,58c29.86,7.12,58.46-15.86,58.46-46.56v-17.3A48,48,0,0,0,220.65,521.5Z"/><path class="cls-1" d="M151.66,272.94a28.58,28.58,0,0,0-28.32,24.71,4.38,4.38,0,0,1-4.3,3.88h-.58a4.34,4.34,0,0,1-4.32-4.36,3.77,3.77,0,0,1,0-.58,37.81,37.81,0,0,1,75,0,4.34,4.34,0,0,1-3.7,4.9,3.77,3.77,0,0,1-.58,0h-.59a4.38,4.38,0,0,1-4.29-3.88A28.61,28.61,0,0,0,151.66,272.94Z"/></g></g></svg>