<svg xmlns="http://www.w3.org/2000/svg" id="Layer_1" data-name="Layer 1" viewBox="0 0 1014.54 1008.45"><defs><style>.cls-1{fill:#a0aec0;}.cls-2{fill:#667eea;}.cls-3{fill:#1a1a1b;}</style></defs><title>FadFed LOGO</title><path class="cls-1" d="M577.44,414.47q76.14-36.87,67.64-131.16H598a47.77,47.77,0,0,1-47.77-47.77V84.73A47.77,47.77,0,0,1,598,37H750.32a47.77,47.77,0,0,1,47.77,47.77V244.82q0,152.43-73.45,218.64-45.75,41.24-116,58c-29.86,7.12-58.46-15.86-58.46-46.56V457.6A48,48,0,0,1,577.44,414.47Z" transform="translate(-33.73 -36.96)"/><path class="cls-2" d="M646.43,185.29a28.59,28.59,0,0,0,28.32-24.71,4.39,4.39,0,0,1,4.3-3.88h.58a4.34,4.34,0,0,1,4.28,4.94,37.81,37.81,0,0,1-75,0,4.34,4.34,0,0,1,4.28-4.94h.59a4.38,4.38,0,0,1,4.29,3.88A28.59,28.59,0,0,0,646.43,185.29Z" transform="translate(-33.73 -36.96)"/><path class="cls-2" d="M504.56,558.5q-76.14-36.88-67.64-131.16H484a47.77,47.77,0,0,0,47.77-47.78V228.75A47.77,47.77,0,0,0,484,181H331.68a47.77,47.77,0,0,0-47.77,47.77V388.84q0,152.43,73.45,218.64,45.75,41.24,116,58c29.86,7.12,58.46-15.86,58.46-46.56V601.62A48,48,0,0,0,504.56,558.5Z" transform="translate(-33.73 -36.96)"/><path class="cls-1" d="M435.57,309.94a28.59,28.59,0,0,0-28.32,24.71,4.38,4.38,0,0,1-4.3,3.88h-.58a4.34,4.34,0,0,1-4.28-4.94,37.81,37.81,0,0,1,75,0,4.34,4.34,0,0,1-4.28,4.94h-.59a4.37,4.37,0,0,1-4.29-3.88A28.6,28.6,0,0,0,435.57,309.94Z" transform="translate(-33.73 -36.96)"/><path class="cls-3" d="M289.88,785.76a23.37,23.37,0,0,0,17.45,7.79,22.26,22.26,0,0,0,9.66-1.88,25.86,25.86,0,0,0,8-5.44,24,24,0,0,0,5.3-8.05,24.28,24.28,0,0,0,1.74-9.86,27.22,27.22,0,0,0-2.21-9.66,24.87,24.87,0,0,0-5.17-7.65,23.41,23.41,0,0,0-16.77-6.84,23,23,0,0,0-9,1.74,24.7,24.7,0,0,0-7.38,4.77,24.11,24.11,0,0,0-5.23,7.18,27.35,27.35,0,0,0-2.55,8.85,24,24,0,0,0,1.21,10.53A25.38,25.38,0,0,0,289.88,785.76Z" transform="translate(-33.73 -36.96)"/><rect class="cls-2" x="439.84" y="970.12" width="77.02" height="17.18" rx="8.59"/><path class="cls-2" d="M496.65,785.5a23.45,23.45,0,0,0,17.45,7.78,22.23,22.23,0,0,0,9.66-1.88,25.86,25.86,0,0,0,8-5.44,24,24,0,0,0,5.3-8.05,24.46,24.46,0,0,0,1.75-9.86,27.22,27.22,0,0,0-2.22-9.66,25,25,0,0,0-5.16-7.65,23.46,23.46,0,0,0-16.78-6.84,23,23,0,0,0-9,1.74,24.7,24.7,0,0,0-7.38,4.77,24.11,24.11,0,0,0-5.23,7.18,27.35,27.35,0,0,0-2.55,8.85A24,24,0,0,0,491.69,777,25.7,25.7,0,0,0,496.65,785.5Z" transform="translate(-33.73 -36.96)"/><path class="cls-3" d="M730.13,785.5a23.4,23.4,0,0,0,17.44,7.78,22.2,22.2,0,0,0,9.66-1.88,26,26,0,0,0,8-5.44,24.27,24.27,0,0,0,7-17.91,27.44,27.44,0,0,0-2.21-9.66,24.87,24.87,0,0,0-5.17-7.65,23.41,23.41,0,0,0-16.77-6.84,23,23,0,0,0-9,1.74,24.57,24.57,0,0,0-7.38,4.77,23.94,23.94,0,0,0-5.23,7.18,26.86,26.86,0,0,0-2.55,8.85,24.18,24.18,0,0,0,1.2,10.53A25.72,25.72,0,0,0,730.13,785.5Z" transform="translate(-33.73 -36.96)"/><rect class="cls-1" x="898.07" y="648.46" width="77.69" height="17.31" rx="8.59"/><path class="cls-3" d="M1046.93,872.11a64,64,0,0,0-4.57-14.83,87.63,87.63,0,0,0-7.64-13.35q-4.44-6.37-9.4-12.28a74,74,0,0,0-11.2-9.25,87.6,87.6,0,0,0-13.08-7.12A58.78,58.78,0,0,0,986.48,811a106.85,106.85,0,0,0-32.07,0,63.05,63.05,0,0,0-14.83,4.29,85.23,85.23,0,0,0-13,7.38q-6,4.17-11.74,9A88.42,88.42,0,0,0,906,843.93q-3.83,6.38-7.18,13.35a93.85,93.85,0,0,0-4.09,14.36,80.12,80.12,0,0,0-1.41,15.56,83.9,83.9,0,0,0,.6,10.07c.41,3.31.83,6.44,1.28,9.39L901.34,924H884.57l-18.92-.14A136.23,136.23,0,0,0,863,903.31a148.72,148.72,0,0,0-5.57-19.86,190.34,190.34,0,0,0-7.78-18.52A81.41,81.41,0,0,0,839,848.43a137,137,0,0,0-13.82-14.36,102.22,102.22,0,0,0-16.7-12.21,101.2,101.2,0,0,0-18.85-8.66,153.08,153.08,0,0,0-21.54-5.43q-3.63-1.6-16.84-1.95T730.33,807a101.51,101.51,0,0,0-14.43,3.83q-6.71,2.36-12.27,4.76a94.86,94.86,0,0,0-13.42,7.52,68,68,0,0,0-11.47,8.85h0a20,20,0,0,0-20-20H657a20,20,0,0,0-20,20v80.65l-4.83,8-8,3.35H585.48c.45-1,.92-2,1.41-3s1-2.08,1.41-3.15a59,59,0,0,0,4.56-14.49,86.6,86.6,0,0,0,1.34-15.17,92.63,92.63,0,0,0-1.34-16,63.28,63.28,0,0,0-4.56-14.9,88.54,88.54,0,0,0-7.65-13.35q-4.42-6.37-9.26-12.14a71.55,71.55,0,0,0-11.27-9.26A91,91,0,0,0,547,815.42a60.55,60.55,0,0,0-14.56-4.36,101.08,101.08,0,0,0-32.07,0,65.27,65.27,0,0,0-14.82,4.36,84.43,84.43,0,0,0-12.89,7.31q-5.89,4.1-11.8,9.06a81.78,81.78,0,0,0-8.93,12.14,140.59,140.59,0,0,0-7,13.35,84.76,84.76,0,0,0-4.23,14.43,81.08,81.08,0,0,0-1.41,15.63,83.73,83.73,0,0,0,.61,10.06q.6,5,1.27,9.26L447.28,924H412.39a136.39,136.39,0,0,0-2.69-20.53,147.22,147.22,0,0,0-5.56-19.86,188,188,0,0,0-7.79-18.52,80.94,80.94,0,0,0-10.6-16.5,139,139,0,0,0-13.82-14.36,103.18,103.18,0,0,0-35.55-20.86,154.43,154.43,0,0,0-21.54-5.44Q311.21,806.3,298,806t-20.93,1.14a101.16,101.16,0,0,0-14.43,3.82q-6.7,2.36-12.27,4.77A94.66,94.66,0,0,0,237,823.2a68.22,68.22,0,0,0-11.61,9v-.4a20,20,0,0,0-20-20h-1.61a20,20,0,0,0-20,20V949.2q-.67,5.76-1.48,10.87a34,34,0,0,1-3,9.52,44.59,44.59,0,0,1-4.83,9.46,45.89,45.89,0,0,1-6.18,7.45,58.51,58.51,0,0,1-8.18,7,46.6,46.6,0,0,1-8.86,5,30.06,30.06,0,0,1-9.93,2.75,102.55,102.55,0,0,1-11.4.61,90.92,90.92,0,0,1-10.87-.61,28.19,28.19,0,0,1-9.39-2.75,42.26,42.26,0,0,1-9.06-5,67.65,67.65,0,0,1-8.25-7,50.66,50.66,0,0,1-6-7.45,43.68,43.68,0,0,1-4.83-9.46,48.77,48.77,0,0,1-3.15-9.52,49.85,49.85,0,0,1-1.14-10.87l1.61-14.5L85,921.15,94.25,910l11.94-7.78.68-.46a5.73,5.73,0,0,0,1.85-7.45l-15-28.2A5.73,5.73,0,0,0,85.53,864h0a107.58,107.58,0,0,0-11.21,6.91,91.94,91.94,0,0,0-10.13,8.25q-5.1,4.71-9.39,9.26a50.1,50.1,0,0,0-7.52,10.47c-2.14,3.85-4.07,7.71-5.77,11.61a104.61,104.61,0,0,0-4.42,12.14,76.45,76.45,0,0,0-2.62,12.88,120.86,120.86,0,0,0-.74,13.69,109.89,109.89,0,0,0,.74,12.74,80,80,0,0,0,2.62,12.88,105.12,105.12,0,0,0,4.42,11.34q2.55,5.57,5.77,11.48a115.58,115.58,0,0,0,6.65,9.92,74.42,74.42,0,0,0,7.85,8.86,84,84,0,0,0,9.19,8.45,78.82,78.82,0,0,0,10.53,7,57.24,57.24,0,0,0,10.73,5.3q5.64,2.08,12.08,4l25.63,4.29a115.12,115.12,0,0,0,17.44-1.27,67.08,67.08,0,0,0,16-4.5,102.3,102.3,0,0,0,14.63-7.58,147.79,147.79,0,0,0,13.41-9.46,94.43,94.43,0,0,0,11.68-11.54,106.14,106.14,0,0,0,9.66-13.41,75.54,75.54,0,0,0,7.11-15.3,112.17,112.17,0,0,0,4.29-16.77h196a18.31,18.31,0,0,0,2.19.13H610.17a13.81,13.81,0,0,1-2.64-.13H970.44a72.2,72.2,0,0,0,30.6-6.44,87.6,87.6,0,0,0,13.08-7.12,73.44,73.44,0,0,0,11.2-9.26,120.54,120.54,0,0,0,9.4-11.53,75.52,75.52,0,0,0,7.64-13.42,59.42,59.42,0,0,0,4.57-14.49,86.6,86.6,0,0,0,1.34-15.17A92.35,92.35,0,0,0,1046.93,872.11ZM231.78,923.83a112,112,0,0,1,1.81-12.61,104.68,104.68,0,0,1,3.29-12.34q2-6,4.36-11.41a54.71,54.71,0,0,1,5.91-10.26q3.54-4.9,6.23-8.12a46.2,46.2,0,0,1,6.51-6.31,41.32,41.32,0,0,1,6.85-4.63q3-1.53,9.45-4.22,15.84-4.83,23.35-4.77a56.34,56.34,0,0,1,12.88,1.41q5.37,1.35,8.73,2.35a69.37,69.37,0,0,1,6.57,2.35c2.15.9,4.2,1.86,6.17,2.88a39,39,0,0,1,7.05,5.1,68.14,68.14,0,0,1,9.73,11.48,131.87,131.87,0,0,1,8.38,13,66.56,66.56,0,0,1,4.7,11.14A115.15,115.15,0,0,1,367,911.22a63.54,63.54,0,0,1,1.27,12.61ZM547.71,902.9a34.34,34.34,0,0,1-18,18.52,34.09,34.09,0,0,1-26.84.4,35.72,35.72,0,0,1-11.2-7.38,33.88,33.88,0,0,1-7.58-11.13,31.72,31.72,0,0,1-2.49-13.82,32.39,32.39,0,0,1,3-13.09A35.3,35.3,0,0,1,492,865.8a33.9,33.9,0,0,1,10.87-7,34.62,34.62,0,0,1,13.22-2.55,33.27,33.27,0,0,1,13.15,2.62,34.84,34.84,0,0,1,10.8,7.11,33.25,33.25,0,0,1,7.31,10.6,33.78,33.78,0,0,1,2.82,13.08A32.69,32.69,0,0,1,547.71,902.9ZM683,924a111.62,111.62,0,0,1,1.81-12.61A104.84,104.84,0,0,1,688.13,899q2-6,4.36-11.4a54.73,54.73,0,0,1,5.9-10.27q3.55-4.89,6.24-8.12a46.72,46.72,0,0,1,6.51-6.3,41.07,41.07,0,0,1,6.84-4.63q3-1.54,9.46-4.23,15.84-4.83,23.35-4.76a55.79,55.79,0,0,1,12.88,1.41q5.37,1.34,8.72,2.35A68.51,68.51,0,0,1,779,855.4c2.15.9,4.2,1.86,6.17,2.89a39,39,0,0,1,7.05,5.1,68,68,0,0,1,9.73,11.47,131.82,131.82,0,0,1,8.38,13A66.81,66.81,0,0,1,815,899a115.32,115.32,0,0,1,3.22,12.35A63.47,63.47,0,0,1,819.49,924Zm319.55-22.14a34.43,34.43,0,0,1-18,18.52,34.07,34.07,0,0,1-26.83.4,35.82,35.82,0,0,1-11.21-7.38A33.82,33.82,0,0,1,939,902.23a31.69,31.69,0,0,1-2.48-13.82,32.33,32.33,0,0,1,3-13.08,35.15,35.15,0,0,1,7.45-10.6,33.54,33.54,0,0,1,10.87-7.05A34.71,34.71,0,0,1,971,855.14a33.44,33.44,0,0,1,13.15,2.61,35,35,0,0,1,10.8,7.11,33.44,33.44,0,0,1,7.32,10.6,34,34,0,0,1,2.81,13.09A32.52,32.52,0,0,1,1002.58,901.83Z" transform="translate(-33.73 -36.96)"/><path class="cls-1" d="M977.82,745.71a23.51,23.51,0,0,0-9.25-1.81,23,23,0,0,0-9,1.74,24.45,24.45,0,0,0-7.38,4.77,24,24,0,0,0-5.24,7.18,27.35,27.35,0,0,0-2.55,8.85A24.18,24.18,0,0,0,945.62,777a25.55,25.55,0,0,0,5,8.53A23.4,23.4,0,0,0,968,793.28a22.2,22.2,0,0,0,9.66-1.88,25.86,25.86,0,0,0,8-5.44,24.33,24.33,0,0,0,7.05-17.91,27.44,27.44,0,0,0-2.21-9.66,24.87,24.87,0,0,0-5.17-7.65A23.47,23.47,0,0,0,977.82,745.71Z" transform="translate(-33.73 -36.96)"/></svg>